<svg xmlns="http://www.w3.org/2000/svg" xmlns:xlink="http://www.w3.org/1999/xlink" viewBox="0,0,256,256" width="50px" height="50px"><g fill="#ffff00" fill-rule="nonzero" stroke="none" stroke-width="none" stroke-linecap="butt" stroke-linejoin="none" stroke-miterlimit="10" stroke-dasharray="" stroke-dashoffset="0" font-family="none" font-weight="none" font-size="none" text-anchor="none" style="mix-blend-mode: normal"><path transform="scale(5.12,5.12)" d="M35.92969,4.60156c0.16016,0.37891 0.07422,0.81641 -0.22266,1.10547l-19.29297,19.29297l19.29297,19.29297c0.26172,0.25 0.36719,0.625 0.27344,0.97266c-0.08984,0.35156 -0.36328,0.625 -0.71484,0.71484c-0.34766,0.09375 -0.72266,-0.01172 -0.97266,-0.27344l-20,-20c-0.39062,-0.39062 -0.39062,-1.02344 0,-1.41406l20,-20c0.17969,-0.1875 0.42578,-0.29688 0.6875,-0.30078c0.41406,-0.01562 0.78906,0.22656 0.94922,0.60937z" id="strokeMainSVG" stroke="#ffff00" stroke-width="2" stroke-linejoin="round"></path><g transform="scale(5.12,5.12)" stroke="none" stroke-width="1" stroke-linejoin="miter"><path d="M34.98047,3.99219c-0.26172,0.00391 -0.50781,0.11328 -0.6875,0.30078l-20,20c-0.39062,0.39063 -0.39062,1.02344 0,1.41406l20,20c0.25,0.26172 0.625,0.36719 0.97266,0.27344c0.35156,-0.08984 0.625,-0.36328 0.71484,-0.71484c0.09375,-0.34766 -0.01172,-0.72266 -0.27344,-0.97266l-19.29297,-19.29297l19.29297,-19.29297c0.29688,-0.28906 0.38281,-0.72656 0.22266,-1.10547c-0.16016,-0.38281 -0.53516,-0.625 -0.94922,-0.60937z"></path></g></g></svg>